# xmcd CD database file
#
# Track frame offsets:
#	150
#	17137
#	36127
#	53115
#
# Disc length: 957 seconds
#
# Revision: 2
# Processed by: cddbd v1.5.2PL0 Copyright (c) Steve Scherf et al.
# Submitted via: CDex 1.70beta2
#
DISCID=2a03bb04
DTITLE=和島あみ - 幻想ドライブ 迷家(マヨイガ)OPテーマ
DYEAR=2016
DGENRE=Anime
TTITLE0=幻想ドライブ
TTITLE1=キミへ
TTITLE2=幻想ドライブ (instrumental)
TTITLE3=キミへ (instrumental)
EXTD=YEAR: 2016
EXTT0=
EXTT1=
EXTT2=
EXTT3=
PLAYORDER=
